<svg width="52" height="59" viewBox="0 0 52 59" fill="none" xmlns="http://www.w3.org/2000/svg">
<path d="M51.216 50.9289L45.1004 38.8874C45.0138 38.714 44.8513 38.5894 44.6617 38.5461C44.4721 38.5028 44.2771 38.5515 44.1254 38.6707C40.702 41.3845 34.8193 43.4321 30.4371 43.4321C21.9706 43.4321 16.0555 37.7011 16.0555 29.4946C16.0555 21.2881 21.9706 15.5571 30.4371 15.5571C35.0197 15.5571 39.7215 17.0305 42.7008 19.4085C42.847 19.5276 43.0475 19.571 43.2316 19.5385C43.4158 19.5006 43.5783 19.3814 43.6704 19.2135L50.4523 6.85769C50.6039 6.58144 50.5335 6.23476 50.2843 6.03975C45.1546 1.97714 38.6436 0 30.3775 0C12.7729 0 0 12.4099 0 29.5C0 46.5955 12.7729 59 30.3775 59C38.4323 59 45.3929 56.5516 51.0589 51.7144C51.2864 51.5194 51.3515 51.1944 51.216 50.9289V50.9289Z" fill="#E78A00"/>
<path d="M42.2575 17.3312V14.8768H50.7855V17.3312L47.6239 17.872L40.1359 42H35.1439L29.8191 24.1536L24.4527 42H19.4607L12.0559 17.5392L9.85107 17.3312V14.8768H23.4127V17.3312L20.6255 17.6224L24.5775 33.3888L29.0287 17.664L26.4495 17.3312V14.8768H39.3871V17.3312L35.9759 17.7472L40.2607 33.7216L44.8367 17.7472L42.2575 17.3312Z" fill="white"/>
</svg>
