<svg width="126" height="59" viewBox="0 0 126 59" fill="none" xmlns="http://www.w3.org/2000/svg">
<path d="M51.216 50.9289L45.1004 38.8874C45.0138 38.714 44.8513 38.5894 44.6617 38.5461C44.4721 38.5028 44.2771 38.5515 44.1254 38.6707C40.702 41.3845 34.8193 43.4321 30.4371 43.4321C21.9706 43.4321 16.0555 37.7011 16.0555 29.4946C16.0555 21.2881 21.9706 15.5571 30.4371 15.5571C35.0197 15.5571 39.7215 17.0305 42.7008 19.4085C42.847 19.5276 43.0475 19.571 43.2316 19.5385C43.4158 19.5006 43.5783 19.3814 43.6704 19.2135L50.4523 6.85769C50.6039 6.58144 50.5335 6.23476 50.2843 6.03975C45.1546 1.97714 38.6436 0 30.3775 0C12.7729 0 0 12.4099 0 29.5C0 46.5955 12.7729 59 30.3775 59C38.4323 59 45.3929 56.5516 51.0589 51.7144C51.2864 51.5194 51.3515 51.1944 51.216 50.9289Z" fill="#E78A00"/>
<path d="M42.2575 17.3312V14.8768H50.7855V17.3312L47.6239 17.872L40.1359 42H35.1439L29.8191 24.1536L24.4527 42H19.4607L12.0559 17.5392L9.85107 17.3312V14.8768H23.4127V17.3312L20.6255 17.6224L24.5775 33.3888L29.0287 17.664L26.4495 17.3312V14.8768H39.3871V17.3312L35.9759 17.7472L40.2607 33.7216L44.8367 17.7472L42.2575 17.3312Z" fill="white"/>
<path d="M61.3301 23.836C60.7781 23.836 60.3101 24.244 59.9261 25.06C59.5421 25.876 59.3261 27.4 59.2781 29.632H60.9701C61.8341 29.632 62.4101 29.464 62.6981 29.128C63.0101 28.768 63.1661 28.132 63.1661 27.22C63.1661 25.972 62.9741 25.096 62.5901 24.592C62.2301 24.088 61.8101 23.836 61.3301 23.836ZM61.4381 40.576C59.6381 40.576 58.0301 40.204 56.6141 39.46C55.2221 38.716 54.1181 37.648 53.3021 36.256C52.4861 34.84 52.0781 33.148 52.0781 31.18C52.0781 29.62 52.3541 28.264 52.9061 27.112C53.4581 25.96 54.2021 25 55.1381 24.232C56.0741 23.44 57.1181 22.852 58.2701 22.468C59.4221 22.084 60.5861 21.892 61.7621 21.892C63.4901 21.892 64.9181 22.252 66.0461 22.972C67.1981 23.668 68.0621 24.616 68.6381 25.816C69.2141 26.992 69.5021 28.312 69.5021 29.776C69.5021 30.16 69.4901 30.496 69.4661 30.784C69.4421 31.048 69.3941 31.348 69.3221 31.684H59.3141C59.5061 33.436 60.0221 34.708 60.8621 35.5C61.7261 36.292 62.6861 36.688 63.7421 36.688C64.6541 36.688 65.4341 36.532 66.0821 36.22C66.7541 35.884 67.3421 35.476 67.8461 34.996L69.2501 36.364C68.4821 37.828 67.4261 38.896 66.0821 39.568C64.7621 40.24 63.2141 40.576 61.4381 40.576Z" fill="white"/>
<path d="M83.8794 40.72C82.1754 40.72 80.5554 40.48 79.0194 40C77.5074 39.544 76.1634 38.812 74.9874 37.804C73.8354 36.796 72.9234 35.512 72.2514 33.952C71.5794 32.368 71.2434 30.472 71.2434 28.264C71.2434 26.008 71.6034 24.088 72.3234 22.504C73.0434 20.92 74.0154 19.636 75.2394 18.652C76.4634 17.668 77.8554 16.948 79.4154 16.492C80.9754 16.036 82.5834 15.808 84.2394 15.808C85.7514 15.808 87.0594 15.976 88.1634 16.312C89.2674 16.624 90.3234 17.056 91.3314 17.608L91.4754 23.332H88.5234L87.3714 18.4C86.7234 18.088 86.0154 17.932 85.2474 17.932C84.0954 17.932 83.0154 18.28 82.0074 18.976C80.9994 19.648 80.1834 20.752 79.5594 22.288C78.9354 23.8 78.6234 25.804 78.6234 28.3C78.6234 30.772 78.9234 32.764 79.5234 34.276C80.1474 35.788 80.9514 36.88 81.9354 37.552C82.9434 38.224 83.9994 38.56 85.1034 38.56C85.9434 38.56 86.7834 38.368 87.6234 37.984L88.7394 33.196H91.6914L91.5474 38.848C90.6594 39.352 89.5674 39.784 88.2714 40.144C86.9994 40.528 85.5354 40.72 83.8794 40.72ZM102.785 40.576C100.721 40.576 98.9813 40.168 97.5653 39.352C96.1493 38.512 95.0813 37.372 94.3613 35.932C93.6413 34.492 93.2813 32.884 93.2813 31.108C93.2813 29.308 93.6893 27.724 94.5053 26.356C95.3213 24.964 96.4373 23.872 97.8533 23.08C99.2933 22.288 100.937 21.892 102.785 21.892C104.633 21.892 106.265 22.288 107.681 23.08C109.121 23.848 110.249 24.928 111.065 26.32C111.881 27.688 112.289 29.284 112.289 31.108C112.289 32.932 111.917 34.564 111.173 36.004C110.453 37.42 109.385 38.536 107.969 39.352C106.577 40.168 104.849 40.576 102.785 40.576ZM102.785 38.596C103.577 38.596 104.153 38.02 104.513 36.868C104.897 35.716 105.089 33.832 105.089 31.216C105.089 28.6 104.897 26.728 104.513 25.6C104.153 24.448 103.577 23.872 102.785 23.872C101.993 23.872 101.405 24.448 101.021 25.6C100.661 26.728 100.481 28.6 100.481 31.216C100.481 33.832 100.661 35.716 101.021 36.868C101.405 38.02 101.993 38.596 102.785 38.596ZM114.063 40V38.164L115.683 37.804C115.707 36.892 115.719 35.992 115.719 35.104C115.743 34.216 115.755 33.328 115.755 32.44V17.644L113.811 17.284V15.664L122.127 14.044L122.739 14.44L122.595 19.444V32.44C122.595 33.328 122.595 34.228 122.595 35.14C122.619 36.028 122.643 36.928 122.667 37.84L124.287 38.164V40H114.063Z" fill="#E78A00"/>
</svg>
