<svg width="240" height="96" viewBox="0 0 240 96" fill="none" xmlns="http://www.w3.org/2000/svg">
<path d="M182.453 70.8613H156.047C155.219 70.8613 154.547 70.1895 154.547 69.3613C154.547 68.5332 155.219 67.8613 156.047 67.8613H182.309C183.309 67.6504 190.25 65.8965 190.559 57.7559C190.867 49.6816 186.238 48.873 185.488 48.7949C185.488 48.7949 168.559 48.7949 168.535 48.7949C161.738 47.6621 160.316 41.5488 160.512 38.2988C160.477 29.8535 167.605 26.0684 171.391 25.252C171.492 25.2285 171.602 25.2168 171.707 25.2168H195.488C196.316 25.2168 196.988 25.8887 196.988 26.7168C196.988 27.5449 196.316 28.2168 195.488 28.2168H171.887C170.734 28.5098 163.449 30.6699 163.512 38.334C163.512 38.3691 163.512 38.4043 163.512 38.4434C163.492 38.709 163.184 44.752 168.898 45.7988C168.898 45.7988 185.645 45.7949 185.633 45.7988C185.715 45.8027 193.992 46.4277 193.559 57.8691C193.223 66.7168 186.312 70.2207 182.707 70.8379C182.625 70.8535 182.539 70.8613 182.453 70.8613Z" fill="#0A60AA"/>
<path d="M205.445 36.6035C205.277 37.373 204.277 41.9746 203.289 47.2051L235.371 46.9355C235.793 44.3223 236.715 38.1465 236.715 34.3145C236.715 30.8066 232.5 29.1543 231.562 28.8301H214.27C208.73 28.8301 205.789 35.7441 205.445 36.6035ZM232.227 71.0176H207.855C207.801 71.0176 207.75 71.0137 207.695 71.0098C204.48 70.666 198.367 68.4277 198.23 62.4277C198.09 56.0449 202.359 36.666 202.543 35.8418C202.559 35.7754 202.578 35.709 202.602 35.6465C202.75 35.2441 206.336 25.8301 214.27 25.8301H231.801C231.941 25.8301 232.082 25.8496 232.215 25.8887C232.523 25.9785 239.715 28.127 239.715 34.3145C239.715 39.5137 238.187 48.3105 238.125 48.6816C238 49.3965 237.383 49.9199 236.66 49.9238L202.738 50.209C201.883 55.0293 201.176 59.8652 201.23 62.3574C201.34 67.0059 207.184 67.9199 207.945 68.0176H232.227C233.055 68.0176 233.727 68.6895 233.727 69.5176C233.727 70.3457 233.055 71.0176 232.227 71.0176Z" fill="#0A60AA"/>
<path d="M116.895 61.3262C119.945 67.1387 124.656 68.0059 125.352 68.1035L140.445 67.6738C145.691 65.9863 147.598 60.4746 147.816 59.7949L151.969 34.4473C152.402 31.623 148.07 28.5996 146.293 28.6113C145.195 28.6152 141.68 28.6309 138.168 28.6348C136.047 28.6387 133.922 28.6387 132.336 28.6387C131.246 28.6348 130.461 28.6348 129.883 28.5996C127.344 29.0332 122.82 33.0723 121.422 36.8301C121.156 38.0098 119.117 49.1309 116.895 61.3262ZM110.313 90.7012C110.223 90.7012 110.133 90.6934 110.043 90.6777C109.227 90.5293 108.688 89.748 108.832 88.9356C108.832 88.9356 111.223 75.7246 113.629 62.5137C114.832 55.9082 116.039 49.3027 116.953 44.3457C117.41 41.8652 117.793 39.7988 118.07 38.3496C118.297 37.1543 118.445 36.3691 118.613 35.8535L118.586 35.8457C120.281 31.2129 125.559 26.248 129.449 25.6309C129.586 25.6074 129.723 25.6074 129.855 25.623C130.848 25.6543 140.355 25.6348 146.633 25.6113H146.637C148.094 25.5801 155.867 28.5215 154.961 34.6777C154.953 34.7324 154.953 34.7871 154.945 34.8418L150.762 60.3809C150.75 60.4356 150.738 60.4902 150.723 60.5449C150.633 60.8652 148.434 68.4082 141.121 70.5996C140.996 70.6387 140.867 70.6621 140.734 70.6621L125.324 71.1035C125.262 71.1074 125.199 71.1035 125.141 71.0996C124.898 71.0762 120.027 70.5566 116.113 65.6191C114.453 74.7363 112.797 83.8848 111.785 89.4668C111.652 90.1934 111.023 90.7012 110.313 90.7012Z" fill="#0A60AA"/>
<path d="M90.0469 19.2871C90.0469 21.5996 88.1758 23.4746 85.8633 23.4746C83.5547 23.4746 81.6797 21.5996 81.6797 19.2871C81.6797 16.9785 83.5547 15.1035 85.8633 15.1035C88.1758 15.1035 90.0469 16.9785 90.0469 19.2871Z" fill="#FCB617"/>
<path d="M80.5742 5.07617C80.5742 7.38867 78.6992 9.26367 76.3867 9.26367C74.0781 9.26367 72.2031 7.38867 72.2031 5.07617C72.2031 2.76758 74.0781 0.892578 76.3867 0.892578C78.6992 0.892578 80.5742 2.76758 80.5742 5.07617Z" fill="#FCB617"/>
<path d="M71.0547 19.2871C71.0547 21.5996 69.1836 23.4746 66.8711 23.4746C64.5586 23.4746 62.6875 21.5996 62.6875 19.2871C62.6875 16.9785 64.5586 15.1035 66.8711 15.1035C69.1836 15.1035 71.0547 16.9785 71.0547 19.2871Z" fill="#FCB617"/>
<path d="M89.5664 76.2754C89.5664 78.584 87.6914 80.459 85.3828 80.459C83.0703 80.459 81.1953 78.584 81.1953 76.2754C81.1953 73.9629 83.0703 72.0879 85.3828 72.0879C87.6914 72.0879 89.5664 73.9629 89.5664 76.2754Z" fill="#FCB617"/>
<path d="M80.5508 62.916C80.5508 65.2246 78.6797 67.0996 76.3672 67.0996C74.0547 67.0996 72.1836 65.2246 72.1836 62.916C72.1836 60.6035 74.0547 58.7285 76.3672 58.7285C78.6797 58.7285 80.5508 60.6035 80.5508 62.916Z" fill="#FCB617"/>
<path d="M61.3633 62.916C61.3633 64.8262 59.8164 66.377 57.9062 66.377C55.9922 66.377 54.4453 64.8262 54.4453 62.916C54.4453 61.002 55.9922 59.4551 57.9062 59.4551C59.8164 59.4551 61.3633 61.002 61.3633 62.916Z" fill="#FCB617"/>
<path d="M70.5977 76.2754C70.5977 78.1855 69.0508 79.7363 67.1367 79.7363C65.2266 79.7363 63.6758 78.1855 63.6758 76.2754C63.6758 74.3652 65.2266 72.8145 67.1367 72.8145C69.0508 72.8145 70.5977 74.3652 70.5977 76.2754Z" fill="#FCB617"/>
<path d="M61.1211 90.9199C61.1211 92.834 59.5742 94.3809 57.6602 94.3809C55.75 94.3809 54.1992 92.834 54.1992 90.9199C54.1992 89.0098 55.75 87.459 57.6602 87.459C59.5742 87.459 61.1211 89.0098 61.1211 90.9199Z" fill="#FCB617"/>
<path d="M51.3867 76.2754C51.3867 77.7559 50.1836 78.9551 48.7031 78.9551C47.2227 78.9551 46.0234 77.7559 46.0234 76.2754C46.0234 74.7949 47.2227 73.5918 48.7031 73.5918C50.1836 73.5918 51.3867 74.7949 51.3867 76.2754Z" fill="#FCB617"/>
<path d="M18.4102 48.2324C18.4102 49.7129 17.2109 50.916 15.7305 50.916C14.25 50.916 13.0469 49.7129 13.0469 48.2324C13.0469 46.752 14.25 45.5527 15.7305 45.5527C17.2109 45.5527 18.4102 46.752 18.4102 48.2324Z" fill="#FCB617"/>
<path d="M23.2148 33.9434C23.2148 35.4238 22.0156 36.623 20.5312 36.623C19.0508 36.623 17.8516 35.4238 17.8516 33.9434C17.8516 32.4629 19.0508 31.2598 20.5312 31.2598C22.0156 31.2598 23.2148 32.4629 23.2148 33.9434Z" fill="#FCB617"/>
<path d="M32.3008 19.2871C32.3008 20.7715 31.1016 21.9707 29.6211 21.9707C28.1406 21.9707 26.9414 20.7715 26.9414 19.2871C26.9414 17.8066 28.1406 16.6074 29.6211 16.6074C31.1016 16.6074 32.3008 17.8066 32.3008 19.2871Z" fill="#FCB617"/>
<path d="M41.5195 5.39258C41.5195 6.87305 40.3203 8.07617 38.8359 8.07617C37.3555 8.07617 36.1562 6.87305 36.1562 5.39258C36.1562 3.91211 37.3555 2.71289 38.8359 2.71289C40.3203 2.71289 41.5195 3.91211 41.5195 5.39258Z" fill="#FCB617"/>
<path d="M41.7812 90.9199C41.7812 92.4043 40.5781 93.6035 39.0977 93.6035C37.6172 93.6035 36.4141 92.4043 36.4141 90.9199C36.4141 89.4395 37.6172 88.2402 39.0977 88.2402C40.5781 88.2402 41.7812 89.4395 41.7812 90.9199Z" fill="#FCB617"/>
<path d="M32.5625 76.2754C32.5625 77.7559 31.3594 78.9551 29.8789 78.9551C28.3984 78.9551 27.1992 77.7559 27.1992 76.2754C27.1992 74.7949 28.3984 73.5918 29.8789 73.5918C31.3594 73.5918 32.5625 74.7949 32.5625 76.2754Z" fill="#FCB617"/>
<path d="M23.0859 62.916C23.0859 64.3965 21.8828 65.5957 20.4023 65.5957C18.9219 65.5957 17.7227 64.3965 17.7227 62.916C17.7227 61.4355 18.9219 60.2324 20.4023 60.2324C21.8828 60.2324 23.0859 61.4355 23.0859 62.916Z" fill="#FCB617"/>
<path d="M16.7227 76.2754C16.7227 77.0371 16.1055 77.6582 15.3398 77.6582C14.5781 77.6582 13.957 77.0371 13.957 76.2754C13.957 75.5098 14.5781 74.8926 15.3398 74.8926C16.1055 74.8926 16.7227 75.5098 16.7227 76.2754Z" fill="#FCB617"/>
<path d="M8.08984 62.916C8.08984 63.6777 7.46875 64.2988 6.70703 64.2988C5.94141 64.2988 5.32422 63.6777 5.32422 62.916C5.32422 62.1504 5.94141 61.5332 6.70703 61.5332C7.46875 61.5332 8.08984 62.1504 8.08984 62.916Z" fill="#FCB617"/>
<path d="M2.76562 47.9863C2.76562 48.748 2.14844 49.3691 1.38281 49.3691C0.617188 49.3691 0 48.748 0 47.9863C0 47.2207 0.617188 46.6035 1.38281 46.6035C2.14844 46.6035 2.76562 47.2207 2.76562 47.9863Z" fill="#FCB617"/>
<path d="M7.69922 33.9668C7.69922 34.7285 7.08203 35.3496 6.31641 35.3496C5.55078 35.3496 4.93359 34.7285 4.93359 33.9668C4.93359 33.2012 5.55078 32.584 6.31641 32.584C7.08203 32.584 7.69922 33.2012 7.69922 33.9668Z" fill="#FCB617"/>
<path d="M17.0469 19.4277C17.0469 20.1895 16.4297 20.8105 15.6641 20.8105C14.8984 20.8105 14.2812 20.1895 14.2812 19.4277C14.2812 18.6621 14.8984 18.041 15.6641 18.041C16.4297 18.041 17.0469 18.6621 17.0469 19.4277Z" fill="#FCB617"/>
<path d="M42.4297 62.916C42.4297 64.8262 40.8789 66.377 38.9688 66.377C37.0547 66.377 35.5078 64.8262 35.5078 62.916C35.5078 61.002 37.0547 59.4551 38.9688 59.4551C40.8789 59.4551 42.4297 61.002 42.4297 62.916Z" fill="#FCB617"/>
<path d="M32.6914 48.2676C32.6914 50.1777 31.1445 51.7285 29.2305 51.7285C27.3203 51.7285 25.7695 50.1777 25.7695 48.2676C25.7695 46.3574 27.3203 44.8066 29.2305 44.8066C31.1445 44.8066 32.6914 46.3574 32.6914 48.2676Z" fill="#FCB617"/>
<path d="M42.2969 33.9434C42.2969 35.8535 40.75 37.4043 38.8359 37.4043C36.9258 37.4043 35.3789 35.8535 35.3789 33.9434C35.3789 32.0332 36.9258 30.4824 38.8359 30.4824C40.75 30.4824 42.2969 32.0332 42.2969 33.9434Z" fill="#FCB617"/>
<path d="M51.9062 19.2871C51.9062 21.2012 50.3555 22.748 48.4453 22.748C46.5312 22.748 44.9844 21.2012 44.9844 19.2871C44.9844 17.377 46.5312 15.8262 48.4453 15.8262C50.3555 15.8262 51.9062 17.377 51.9062 19.2871Z" fill="#FCB617"/>
<path d="M60.9922 5.13867C60.9922 7.04883 59.4414 8.59961 57.5312 8.59961C55.6211 8.59961 54.0703 7.04883 54.0703 5.13867C54.0703 3.22852 55.6211 1.67773 57.5312 1.67773C59.4414 1.67773 60.9922 3.22852 60.9922 5.13867Z" fill="#FCB617"/>
<path d="M52.3867 48.2676C52.3867 50.5801 50.5117 52.4512 48.1992 52.4512C45.8906 52.4512 44.0156 50.5801 44.0156 48.2676C44.0156 45.9551 45.8906 44.084 48.1992 44.084C50.5117 44.084 52.3867 45.9551 52.3867 48.2676Z" fill="#FCB617"/>
<path d="M61.7188 33.9434C61.7188 36.252 59.8477 38.127 57.5352 38.127C55.2227 38.127 53.3516 36.252 53.3516 33.9434C53.3516 31.6309 55.2227 29.7559 57.5352 29.7559C59.8477 29.7559 61.7188 31.6309 61.7188 33.9434Z" fill="#FCB617"/>
<path d="M80.5508 90.9199C80.5508 93.2324 78.6797 95.1074 76.3672 95.1074C74.0547 95.1074 72.1836 93.2324 72.1836 90.9199C72.1836 88.6113 74.0547 86.7363 76.3672 86.7363C78.6797 86.7363 80.5508 88.6113 80.5508 90.9199Z" fill="#FCB617"/>
<path d="M50.3242 49.3574H112.246V46.791H50.3242V49.3574Z" fill="#FCB617"/>
<path d="M60.6328 35.2246H80.1055V32.6582H60.6328V35.2246Z" fill="#FCB617"/>
<path d="M88.4688 49.2129L77.7539 32.6582H80.7422L91.4609 49.2129H88.4688Z" fill="#FCB617"/>
<path d="M79.6328 64.1973H89.5664V61.6309H79.6328V64.1973Z" fill="#FCB617"/>
<path d="M87.2031 64.1973L96.0898 49.2129H98.6562L89.7656 64.1973H87.2031Z" fill="#FCB617"/>
</svg>
