<svg width="446" height="274" viewBox="0 0 446 274" fill="none" xmlns="http://www.w3.org/2000/svg">
<g clip-path="url(#clip0_140_332)">
<path d="M88.0938 235.479C90.4373 222.804 102.116 210.315 120.087 206.19C113 219.237 113.001 233.549 120.092 246.595C122.853 251.619 126.703 257.014 124.105 262.079C122.489 265.229 118.535 267.64 114.115 269.148C109.696 270.655 104.791 271.373 99.9469 272.078L98.9936 272.608C91.3043 260.929 85.7504 248.155 88.0938 235.479Z" fill="#F0F0F0"/>
<path d="M120.265 206.43C109.799 214.318 103.294 224.223 101.675 234.739C101.266 236.999 101.39 239.288 102.041 241.522C102.78 243.684 104.366 245.674 106.635 247.284C108.705 248.814 111.086 250.218 112.568 252.06C113.305 253.011 113.736 254.055 113.831 255.126C113.926 256.196 113.684 257.268 113.12 258.27C111.812 260.794 109.234 262.851 106.61 264.803C103.695 266.971 100.617 269.192 99.3779 272.066C99.2278 272.414 98.4333 272.237 98.5832 271.889C100.739 266.889 107.955 264.049 111.396 259.545C113.002 257.444 113.676 255.004 112.17 252.786C110.854 250.846 108.4 249.397 106.284 247.859C104.036 246.31 102.387 244.414 101.48 242.338C100.662 240.133 100.407 237.851 100.728 235.59C101.327 230.49 103.115 225.485 106.026 220.759C109.304 215.353 113.932 210.364 119.711 206.008C120.069 205.738 120.621 206.162 120.265 206.43L120.265 206.43Z" fill="white"/>
<path d="M101.901 231.332C99.3145 230.91 97.0358 229.883 95.4714 228.435C93.9069 226.987 93.1588 225.212 93.3604 223.427C93.3696 223.354 93.4204 223.287 93.5022 223.239C93.5839 223.191 93.6902 223.166 93.7986 223.169C93.907 223.173 94.0091 223.205 94.0833 223.258C94.1575 223.311 94.1981 223.382 94.1965 223.455C94.0042 225.117 94.7014 226.77 96.1622 228.117C97.6231 229.463 99.7515 230.414 102.163 230.798C102.687 230.882 102.422 231.416 101.901 231.332Z" fill="white"/>
<path d="M105.434 246.601C110.104 244.725 113.553 241.734 115.09 238.224C115.242 237.876 116.037 238.053 115.885 238.401C114.275 242.051 110.677 245.159 105.81 247.104C105.346 247.289 104.972 246.785 105.434 246.601Z" fill="white"/>
<path d="M110.08 215.886C111.03 216.19 112.078 216.33 113.128 216.294C114.179 216.259 115.199 216.048 116.099 215.681C116.559 215.492 116.933 215.996 116.475 216.184C115.479 216.586 114.351 216.818 113.191 216.859C112.03 216.901 110.872 216.75 109.818 216.421C109.715 216.396 109.63 216.345 109.58 216.279C109.531 216.213 109.521 216.136 109.552 216.065C109.587 215.995 109.662 215.936 109.761 215.903C109.86 215.869 109.975 215.863 110.08 215.886Z" fill="white"/>
<path d="M174.868 228.83C174.585 228.953 174.303 229.077 174.02 229.205C170.235 230.879 166.659 232.758 163.326 234.821C163.065 234.978 162.803 235.14 162.549 235.301C154.599 240.331 148.106 246.309 143.4 252.933C141.531 255.57 139.963 258.299 138.71 261.096C136.979 264.958 135.56 269.239 132.134 272.399C131.782 272.731 131.4 273.048 130.989 273.349H100.03C99.9596 273.325 99.8889 273.306 99.8182 273.282L98.582 273.32C98.6317 273.173 98.6879 273.021 98.7376 272.874C98.7659 272.788 98.8011 272.703 98.8294 272.617C98.8504 272.56 98.8718 272.503 98.8859 272.451C98.8928 272.432 98.9001 272.413 98.907 272.399C98.9211 272.346 98.9425 272.299 98.9566 272.251C99.2674 271.401 99.5875 270.55 99.9172 269.7C99.9172 269.695 99.9172 269.695 99.9241 269.69C102.343 263.194 105.9 256.913 110.519 250.98C110.661 250.804 110.802 250.624 110.957 250.448C113.096 247.822 115.551 245.317 118.296 242.96C119.806 241.672 121.411 240.437 123.107 239.259C127.496 236.22 132.568 233.664 138.138 231.685C149.242 227.742 162.097 226.231 173.964 228.64C174.267 228.702 174.564 228.763 174.868 228.83Z" fill="#F0F0F0"/>
<path d="M174.797 229.094C159.38 231.154 145.321 236.428 134.614 244.169C132.266 245.808 130.316 247.685 128.836 249.733C127.491 251.758 126.976 253.989 127.346 256.194C127.63 258.254 128.274 260.34 127.808 262.41C127.547 263.468 126.955 264.476 126.073 265.369C125.191 266.263 124.039 267.02 122.691 267.593C119.388 269.078 115.489 269.676 111.645 270.172C107.378 270.722 102.932 271.249 99.3707 273.042C98.9392 273.259 98.4633 272.796 98.8942 272.579C105.091 269.46 113.395 270.114 120.173 267.912C123.336 266.884 126.058 265.209 126.842 262.828C127.527 260.747 126.865 258.596 126.551 256.511C126.143 254.364 126.523 252.183 127.658 250.157C128.978 248.066 130.817 246.141 133.097 244.464C138.14 240.635 144.048 237.364 150.602 234.769C158.058 231.78 166.219 229.671 174.733 228.533C175.26 228.463 175.32 229.024 174.797 229.094H174.797Z" fill="white"/>
<path d="M137.845 241.54C136.158 240.156 135.257 238.413 135.304 236.623C135.352 234.833 136.343 233.113 138.102 231.769C138.459 231.498 139.102 231.859 138.744 232.13C137.103 233.379 136.18 234.982 136.141 236.649C136.102 238.315 136.95 239.937 138.533 241.219C138.876 241.499 138.186 241.818 137.845 241.54Z" fill="white"/>
<path d="M126.998 255.162C132.407 255.556 137.837 254.564 142.207 252.384C142.64 252.168 143.116 252.631 142.684 252.847C138.13 255.11 132.476 256.134 126.849 255.716C126.313 255.676 126.465 255.122 126.998 255.162Z" fill="white"/>
<path d="M158.202 232.52C158.688 233.147 159.399 233.683 160.27 234.08C161.141 234.477 162.144 234.722 163.191 234.793C163.728 234.829 163.575 235.383 163.041 235.347C161.886 235.265 160.778 234.993 159.814 234.556C158.851 234.119 158.061 233.53 157.514 232.841C157.454 232.779 157.432 232.704 157.451 232.631C157.471 232.558 157.531 232.493 157.619 232.449C157.711 232.407 157.823 232.391 157.932 232.404C158.041 232.417 158.138 232.459 158.202 232.52L158.202 232.52Z" fill="white"/>
<path d="M115.24 53.4143H12.8117C9.64642 53.4119 6.61184 52.565 4.37368 51.0595C2.13552 49.5539 0.876574 47.5127 0.873047 45.3836V7.85852C0.876596 5.72947 2.13558 3.6883 4.37375 2.18285C6.61193 0.677402 9.64649 -0.169372 12.8117 -0.171692H115.24C118.405 -0.16937 121.44 0.677396 123.678 2.18284C125.916 3.68829 127.175 5.72946 127.179 7.85851V45.3835C127.175 47.5127 125.916 49.5539 123.678 51.0594C121.44 52.565 118.405 53.4119 115.24 53.4143Z" fill="#E6E6E6"/>
<path d="M271.618 53.4143H169.19C166.024 53.4119 162.99 52.565 160.752 51.0595C158.513 49.5539 157.255 47.5127 157.251 45.3836V7.85852C157.255 5.72947 158.513 3.6883 160.752 2.18285C162.99 0.677402 166.024 -0.169372 169.19 -0.171692H271.618C274.783 -0.169373 277.818 0.677396 280.056 2.18284C282.294 3.68829 283.553 5.72946 283.557 7.85851V45.3835C283.553 47.5127 282.294 49.5539 280.056 51.0594C277.818 52.565 274.783 53.4119 271.618 53.4143Z" fill="#E78A00"/>
<path d="M427.996 53.4143H325.568C322.402 53.4119 319.368 52.565 317.13 51.0595C314.891 49.5539 313.632 47.5127 313.629 45.3836V7.85852C313.632 5.72947 314.891 3.6883 317.13 2.18285C319.368 0.677402 322.402 -0.169372 325.568 -0.171692H427.996C431.161 -0.169373 434.196 0.677396 436.434 2.18284C438.672 3.68829 439.931 5.72946 439.935 7.85851V45.3835C439.931 47.5127 438.672 49.5539 436.434 51.0594C434.196 52.565 431.161 53.4119 427.996 53.4143Z" fill="#E6E6E6"/>
<path d="M115.24 137.025H12.8117C9.64642 137.022 6.61184 136.175 4.37368 134.67C2.13552 133.164 0.876574 131.123 0.873047 128.994V91.4688C0.876598 89.3398 2.13558 87.2986 4.37375 85.7931C6.61193 84.2877 9.64649 83.4409 12.8117 83.4386H115.24C118.405 83.4409 121.44 84.2877 123.678 85.7931C125.916 87.2986 127.175 89.3398 127.179 91.4688V128.994C127.175 131.123 125.916 133.164 123.678 134.67C121.44 136.175 118.405 137.022 115.24 137.025Z" fill="#F2F2F2"/>
<path d="M271.618 137.025H169.19C166.024 137.022 162.99 136.175 160.752 134.67C158.513 133.164 157.255 131.123 157.251 128.994V91.4688C157.255 89.3398 158.513 87.2986 160.752 85.7931C162.99 84.2877 166.024 83.4409 169.19 83.4386H271.618C274.783 83.4409 277.818 84.2877 280.056 85.7931C282.294 87.2986 283.553 89.3397 283.557 91.4688V128.994C283.553 131.123 282.294 133.164 280.056 134.67C277.818 136.175 274.783 137.022 271.618 137.025Z" fill="#E6E6E6"/>
<path d="M272.557 143.319C279.184 143.319 284.557 137.946 284.557 131.319C284.557 124.691 279.184 119.319 272.557 119.319C265.929 119.319 260.557 124.691 260.557 131.319C260.557 137.946 265.929 143.319 272.557 143.319Z" fill="#E78A00"/>
<path d="M277.54 130.311H273.46V126.231C273.46 126.105 273.435 125.98 273.387 125.864C273.339 125.747 273.268 125.641 273.179 125.552C273.09 125.463 272.984 125.392 272.867 125.344C272.751 125.296 272.626 125.271 272.5 125.271C272.374 125.271 272.249 125.296 272.133 125.344C272.016 125.392 271.91 125.463 271.821 125.552C271.732 125.641 271.661 125.747 271.613 125.864C271.565 125.98 271.54 126.105 271.54 126.231V130.311H267.46C267.334 130.311 267.209 130.336 267.093 130.384C266.976 130.432 266.87 130.503 266.781 130.592C266.692 130.681 266.621 130.787 266.573 130.904C266.525 131.02 266.5 131.145 266.5 131.271C266.5 131.397 266.525 131.522 266.573 131.639C266.621 131.755 266.692 131.861 266.781 131.95C266.87 132.039 266.976 132.11 267.093 132.158C267.209 132.206 267.334 132.231 267.46 132.231H271.54V136.311C271.54 136.437 271.565 136.562 271.613 136.679C271.661 136.795 271.732 136.901 271.821 136.99C271.91 137.079 272.016 137.15 272.133 137.198C272.249 137.246 272.374 137.271 272.5 137.271C272.755 137.271 272.999 137.17 273.179 136.99C273.359 136.81 273.46 136.566 273.46 136.311V132.231H277.54C277.666 132.231 277.791 132.206 277.907 132.158C278.024 132.11 278.13 132.039 278.219 131.95C278.308 131.861 278.379 131.755 278.427 131.638C278.475 131.522 278.5 131.397 278.5 131.271C278.5 131.145 278.475 131.02 278.427 130.904C278.379 130.787 278.308 130.681 278.219 130.592C278.13 130.503 278.024 130.432 277.907 130.384C277.791 130.336 277.666 130.311 277.54 130.311L277.54 130.311Z" fill="white"/>
<path d="M118.5 59C125.127 59 130.5 53.6274 130.5 47C130.5 40.3726 125.127 35 118.5 35C111.873 35 106.5 40.3726 106.5 47C106.5 53.6274 111.873 59 118.5 59Z" fill="#E78A00"/>
<path d="M123.483 45.9923H119.403V41.9123C119.403 41.7862 119.379 41.6614 119.33 41.5449C119.282 41.4284 119.211 41.3226 119.122 41.2334C119.033 41.1443 118.927 41.0735 118.811 41.0253C118.694 40.9771 118.57 40.9522 118.443 40.9522C118.317 40.9522 118.193 40.9771 118.076 41.0253C117.96 41.0735 117.854 41.1443 117.765 41.2334C117.675 41.3226 117.605 41.4284 117.556 41.5449C117.508 41.6614 117.483 41.7862 117.483 41.9123V45.9923H113.403C113.277 45.9923 113.152 46.0171 113.036 46.0654C112.92 46.1136 112.814 46.1843 112.725 46.2735C112.635 46.3626 112.565 46.4685 112.516 46.5849C112.468 46.7014 112.443 46.8263 112.443 46.9523C112.443 47.0784 112.468 47.2033 112.516 47.3197C112.565 47.4362 112.635 47.5421 112.725 47.6312C112.814 47.7204 112.92 47.7911 113.036 47.8393C113.152 47.8876 113.277 47.9124 113.403 47.9124H117.483V51.9924C117.483 52.1185 117.508 52.2433 117.556 52.3598C117.605 52.4763 117.675 52.5821 117.765 52.6713C117.854 52.7604 117.96 52.8311 118.076 52.8794C118.193 52.9276 118.317 52.9525 118.443 52.9525C118.698 52.9525 118.942 52.8513 119.122 52.6713C119.302 52.4912 119.404 52.247 119.404 51.9924V47.9124H123.483C123.61 47.9124 123.734 47.8875 123.851 47.8393C123.967 47.791 124.073 47.7203 124.162 47.6312C124.251 47.542 124.322 47.4362 124.37 47.3197C124.419 47.2032 124.443 47.0784 124.443 46.9523C124.443 46.8262 124.419 46.7014 124.37 46.5849C124.322 46.4684 124.251 46.3626 124.162 46.2734C124.073 46.1843 123.967 46.1136 123.851 46.0653C123.734 46.0171 123.61 45.9922 123.483 45.9922L123.483 45.9923Z" fill="white"/>
<path d="M433.5 61C440.127 61 445.5 55.6274 445.5 49C445.5 42.3726 440.127 37 433.5 37C426.873 37 421.5 42.3726 421.5 49C421.5 55.6274 426.873 61 433.5 61Z" fill="#E78A00"/>
<path d="M438.483 47.9923H434.403V43.9123C434.403 43.7862 434.379 43.6614 434.33 43.5449C434.282 43.4284 434.211 43.3226 434.122 43.2334C434.033 43.1443 433.927 43.0735 433.811 43.0253C433.694 42.9771 433.57 42.9522 433.443 42.9522C433.317 42.9522 433.193 42.9771 433.076 43.0253C432.96 43.0735 432.854 43.1443 432.765 43.2334C432.675 43.3226 432.605 43.4284 432.556 43.5449C432.508 43.6614 432.483 43.7862 432.483 43.9123V47.9923H428.403C428.277 47.9923 428.152 48.0171 428.036 48.0654C427.92 48.1136 427.814 48.1843 427.725 48.2735C427.635 48.3626 427.565 48.4685 427.516 48.5849C427.468 48.7014 427.443 48.8263 427.443 48.9523C427.443 49.0784 427.468 49.2033 427.516 49.3197C427.565 49.4362 427.635 49.5421 427.725 49.6312C427.814 49.7204 427.92 49.7911 428.036 49.8393C428.152 49.8876 428.277 49.9124 428.403 49.9124H432.483V53.9924C432.483 54.1185 432.508 54.2433 432.556 54.3598C432.605 54.4763 432.675 54.5821 432.765 54.6713C432.854 54.7604 432.96 54.8311 433.076 54.8794C433.193 54.9276 433.317 54.9525 433.443 54.9525C433.698 54.9525 433.942 54.8513 434.122 54.6713C434.302 54.4912 434.404 54.247 434.404 53.9924V49.9124H438.483C438.61 49.9124 438.734 49.8875 438.851 49.8393C438.967 49.791 439.073 49.7203 439.162 49.6312C439.251 49.542 439.322 49.4362 439.37 49.3197C439.419 49.2032 439.443 49.0784 439.443 48.9523C439.443 48.8262 439.419 48.7014 439.37 48.5849C439.322 48.4684 439.251 48.3626 439.162 48.2734C439.073 48.1843 438.967 48.1136 438.851 48.0653C438.734 48.0171 438.61 47.9922 438.483 47.9922L438.483 47.9923Z" fill="white"/>
<path d="M114.086 144.936C120.713 144.936 126.086 139.563 126.086 132.936C126.086 126.309 120.713 120.936 114.086 120.936C107.459 120.936 102.086 126.309 102.086 132.936C102.086 139.563 107.459 144.936 114.086 144.936Z" fill="#E6E6E6"/>
<path d="M395.635 126.169H331.469C329.486 126.168 327.585 125.637 326.183 124.694C324.781 123.751 323.992 122.472 323.99 121.138V97.631C323.992 96.2973 324.781 95.0186 326.183 94.0755C327.585 93.1324 329.486 92.602 331.469 92.6005H395.635C397.617 92.602 399.518 93.1324 400.921 94.0755C402.323 95.0186 403.111 96.2973 403.114 97.631V121.138C403.111 122.472 402.323 123.751 400.921 124.694C399.519 125.637 397.618 126.168 395.635 126.169Z" fill="#F2F2F2"/>
<path d="M232.936 30.5385C233.161 31.2189 233.234 31.9403 233.15 32.6519C233.066 33.3636 232.827 34.0481 232.45 34.6574C232.073 35.2667 231.566 35.7858 230.967 36.1783C230.367 36.5707 229.689 36.827 228.98 36.9289L223.279 75.8409L213.928 71.2737L223.333 32.4322C223.241 31.2293 223.593 30.0343 224.323 29.0737C225.053 28.1131 226.11 27.4536 227.294 27.2202C228.477 26.9868 229.705 27.1957 230.745 27.8073C231.785 28.4188 232.565 29.3906 232.936 30.5385L232.936 30.5385Z" fill="#9E616A"/>
<path d="M164.848 155.164C165.264 154.58 165.547 153.913 165.678 153.208C165.808 152.504 165.782 151.779 165.602 151.085C165.423 150.392 165.093 149.746 164.636 149.194C164.18 148.641 163.608 148.196 162.96 147.888L166.806 106.498L158.751 110.627L156.236 150.512C155.792 151.634 155.774 152.879 156.187 154.013C156.6 155.146 157.414 156.089 158.476 156.663C159.537 157.236 160.772 157.4 161.946 157.124C163.121 156.848 164.153 156.15 164.848 155.164H164.848Z" fill="#9E616A"/>
<path d="M170.351 134.229L204.918 132.9L206.912 97.0034H167.027L170.351 134.229Z" fill="#9E616A"/>
<path d="M163.936 261L169.843 261L172.652 238.217H163.935L163.936 261Z" fill="#9E616A"/>
<path d="M162.47 258.086L171.808 257.529V261.53L180.685 267.661C181.124 267.964 181.454 268.399 181.628 268.902C181.802 269.406 181.81 269.952 181.651 270.461C181.493 270.97 181.176 271.414 180.746 271.73C180.317 272.046 179.798 272.216 179.265 272.216H168.149L166.233 268.259L165.484 272.216H161.293L162.47 258.086Z" fill="#2F2E41"/>
<path d="M190.208 261L196.115 261L198.925 238.217H190.207L190.208 261Z" fill="#9E616A"/>
<path d="M169.871 125.803C169.871 125.803 159.529 134.153 165.135 163.973C164.282 164.075 165.248 165.758 165.248 165.758L166.057 190.055L166.683 192.84L164.604 197.334L165.461 202.216L162.819 246.528L172.578 247.79L181.917 201.775L183.696 196.601L185.479 192.067L184.517 187.231L185.306 179.725L190.69 154.417L192.008 198.311L190.169 202.501L191.192 207.101L188.912 209.543L188.011 250.611L198.417 251.097L207.027 209.698L206.359 204.415L207.505 200.509V191.385L209.467 187.078L213.744 163.598C213.744 163.598 215.034 145.245 205.62 123.649L169.871 125.803Z" fill="#2F2E41"/>
<path d="M174.086 67.17C174.086 67.17 161.023 69.7536 158.772 80.8943C156.521 92.035 155.073 117.246 155.073 117.246L155.566 120.757L168.203 123.687L176.268 88.3621L174.086 67.17Z" fill="#3F3D56"/>
<path d="M203.898 70.9305C203.898 70.9305 205.223 69.075 212.638 68.7888C212.943 68.777 212.565 68.1713 212.565 68.1713L216.131 50.7407L228.016 57.3207L226.01 75.5945L206.481 97.8069L203.898 70.9305Z" fill="#3F3D56"/>
<path d="M196.491 122.894C190.896 122.894 182.474 122.277 169.796 120.395C168.979 120.272 168.223 119.891 167.639 119.307C167.054 118.724 166.671 117.969 166.546 117.153C166.132 116.716 165.862 116.161 165.774 115.566C165.686 114.97 165.784 114.362 166.053 113.824L166.065 113.8L165.778 113.462C165.334 112.94 165.073 112.287 165.035 111.602C164.997 110.918 165.185 110.24 165.569 109.673L161.642 81.5835C161.244 78.7941 161.854 75.9541 163.362 73.5743C164.871 71.1945 167.179 69.4311 169.872 68.6014L171.322 68.1501L176.803 60.9803L176.911 60.9816L194.508 61.2159L200.219 68.4676L209.45 70.6443L209.474 70.7848L211.617 83.1684C212.732 89.6091 210.175 92.1429 206.912 97.8068L207.87 113.714L208.304 114.504C208.546 114.941 208.626 115.448 208.533 115.939C208.439 116.429 208.177 116.871 207.792 117.189C208.083 118.021 208.103 118.924 207.849 119.768L207.623 120.514C207.624 120.535 207.563 120.839 207.076 121.209C206.197 121.876 203.674 122.894 196.491 122.894Z" fill="#3F3D56"/>
<path d="M188.743 258.086L198.08 257.529V261.53L206.958 267.661C207.396 267.964 207.727 268.398 207.9 268.902C208.074 269.406 208.082 269.952 207.924 270.461C207.765 270.97 207.448 271.414 207.019 271.73C206.59 272.046 206.071 272.216 205.538 272.216H194.421L192.505 268.259L191.757 272.216H187.565L188.743 258.086Z" fill="#2F2E41"/>
<path d="M198.55 45.3561C199.77 37.8354 194.663 30.7494 187.142 29.5289C179.622 28.3085 172.536 33.4159 171.315 40.9366C170.095 48.4573 175.202 55.5434 182.723 56.7638C190.244 57.9842 197.33 52.8768 198.55 45.3561Z" fill="#9E616A"/>
<path d="M192.999 29.6663C187.943 26.1889 183.491 25.6592 179.833 26.6454C179.359 25.9121 178.694 25.3217 177.91 24.9376C175.057 17.7497 166.376 13.4331 158.926 15.5315C151.427 17.6434 146.254 25.9493 147.665 33.6106C148.539 38.3594 151.528 42.4716 152.73 47.1482C155.057 56.2013 149.38 66.5716 140.5 69.4899C148.908 71.1781 158.163 66.0424 161.179 58.0145C162.644 54.1153 162.733 49.858 162.919 45.6968C162.968 42.8246 163.32 39.9655 163.969 37.1671C164.291 35.9116 164.746 34.6941 165.326 33.5351C166.59 30.9877 168.69 28.9509 171.274 27.7644C171.043 28.4803 170.985 29.2408 171.105 29.9834C171.226 30.726 171.521 31.4293 171.967 32.0352C169.995 34.5053 168.922 37.1766 168.922 38.7763C164.826 46.2628 170.683 52.6934 178.17 56.7894C181.156 58.4318 184.604 59.0329 187.97 58.4979L188.283 57.1608L188.707 58.3652L190.124 62.403C191.758 63.1935 193.378 64.0601 194.984 65.0028C194.374 62.1377 193.88 59.2778 193.541 56.4817C193.07 52.6759 194.71 47.0102 195.892 43.5647C196.625 41.4412 197.001 39.2109 197.005 36.9644V36.8662L198.157 40.5643L202.348 38.7763C201.569 34.3036 202.348 29.2259 192.999 29.6663Z" fill="#2F2E41"/>
<path d="M391.267 125.872C394.069 125.872 396.341 123.6 396.341 120.798C396.341 117.995 394.069 115.723 391.267 115.723C388.464 115.723 386.192 117.995 386.192 120.798C386.192 123.6 388.464 125.872 391.267 125.872Z" fill="#E78A00"/>
<path d="M393.374 120.372H391.648V118.647C391.648 118.593 391.638 118.54 391.617 118.491C391.597 118.442 391.567 118.397 391.529 118.359C391.492 118.322 391.447 118.292 391.398 118.271C391.348 118.251 391.296 118.241 391.242 118.241C391.135 118.241 391.031 118.283 390.955 118.359C390.879 118.436 390.836 118.539 390.836 118.647V120.372H389.111C389.003 120.372 388.9 120.415 388.824 120.491C388.748 120.567 388.705 120.67 388.705 120.778C388.705 120.831 388.716 120.884 388.736 120.933C388.756 120.982 388.786 121.027 388.824 121.065C388.862 121.103 388.906 121.133 388.956 121.153C389.005 121.173 389.058 121.184 389.111 121.184H390.836V122.909C390.836 122.962 390.847 123.015 390.867 123.064C390.888 123.114 390.918 123.158 390.955 123.196C390.993 123.234 391.038 123.264 391.087 123.284C391.136 123.305 391.189 123.315 391.242 123.315C391.35 123.315 391.453 123.272 391.529 123.196C391.606 123.12 391.648 123.017 391.648 122.909V121.184H393.374C393.481 121.184 393.585 121.141 393.661 121.065C393.737 120.989 393.78 120.886 393.78 120.778C393.78 120.725 393.769 120.672 393.749 120.622C393.728 120.573 393.698 120.528 393.661 120.491C393.623 120.453 393.578 120.423 393.529 120.403C393.48 120.382 393.427 120.372 393.374 120.372L393.374 120.372Z" fill="white"/>
<path d="M404.427 128.107H376.807C375.635 128.106 374.511 127.639 373.682 126.81C372.853 125.981 372.387 124.858 372.386 123.685V107.199C372.386 106.983 372.472 106.776 372.625 106.624C372.778 106.471 372.985 106.386 373.2 106.386C373.416 106.386 373.623 106.471 373.776 106.624C373.928 106.776 374.014 106.983 374.015 107.199V111.614L406.097 114.53C406.738 114.542 407.348 114.804 407.798 115.261C408.247 115.718 408.499 116.333 408.5 116.974C408.5 117.024 408.495 117.074 408.486 117.124L406.869 125.746C406.847 126.379 406.58 126.979 406.125 127.419C405.669 127.86 405.06 128.106 404.427 128.107ZM374.015 113.25V123.685C374.016 124.426 374.31 125.135 374.834 125.659C375.357 126.182 376.067 126.477 376.807 126.478H404.427C404.643 126.477 404.85 126.391 405.003 126.239C405.156 126.086 405.241 125.879 405.242 125.663C405.242 125.613 405.246 125.562 405.256 125.513L406.868 116.911C406.852 116.707 406.76 116.516 406.609 116.376C406.459 116.237 406.261 116.159 406.056 116.159C406.032 116.159 406.007 116.158 405.983 116.156L374.015 113.25Z" fill="#E78A00"/>
<path d="M369.468 135.71C370.218 135.71 370.826 135.102 370.826 134.352C370.826 133.602 370.218 132.995 369.468 132.995C368.718 132.995 368.11 133.602 368.11 134.352C368.11 135.102 368.718 135.71 369.468 135.71Z" fill="#E78A00"/>
<path d="M403.341 135.71C404.091 135.71 404.699 135.102 404.699 134.352C404.699 133.602 404.091 132.995 403.341 132.995C402.591 132.995 401.983 133.602 401.983 134.352C401.983 135.102 402.591 135.71 403.341 135.71Z" fill="#E78A00"/>
<path d="M404.698 132.994H368.382C368.166 132.994 367.959 132.909 367.806 132.756C367.653 132.603 367.567 132.396 367.567 132.18C367.567 131.964 367.653 131.757 367.806 131.604C367.959 131.451 368.166 131.365 368.382 131.365H404.698C404.915 131.365 405.122 131.451 405.275 131.604C405.427 131.757 405.513 131.964 405.513 132.18C405.513 132.396 405.427 132.603 405.275 132.756C405.122 132.909 404.915 132.994 404.698 132.994Z" fill="#E78A00"/>
<path d="M375.373 107.742H368.313C368.097 107.741 367.89 107.655 367.738 107.502C367.586 107.35 367.5 107.143 367.5 106.927C367.5 106.711 367.586 106.504 367.738 106.352C367.89 106.199 368.097 106.113 368.313 106.112H375.373C375.588 106.113 375.795 106.199 375.948 106.352C376.1 106.504 376.185 106.711 376.185 106.927C376.185 107.143 376.1 107.35 375.948 107.502C375.795 107.655 375.588 107.741 375.373 107.742Z" fill="#E78A00"/>
<path d="M381.037 132.58C380.842 132.58 380.654 132.51 380.507 132.383L375.152 127.782C375.071 127.712 375.004 127.627 374.955 127.532C374.907 127.436 374.878 127.332 374.87 127.225C374.861 127.118 374.874 127.011 374.908 126.909C374.941 126.807 374.994 126.713 375.064 126.632C375.134 126.551 375.219 126.484 375.315 126.436C375.41 126.387 375.514 126.358 375.621 126.35C375.728 126.342 375.835 126.356 375.937 126.389C376.039 126.423 376.133 126.476 376.214 126.546L381.568 131.147C381.694 131.256 381.784 131.4 381.826 131.561C381.868 131.722 381.859 131.892 381.801 132.048C381.743 132.204 381.639 132.339 381.502 132.434C381.366 132.529 381.203 132.58 381.037 132.58V132.58Z" fill="#E78A00"/>
<path d="M382.164 127.606C382.057 127.606 381.951 127.585 381.852 127.544C381.754 127.504 381.664 127.444 381.588 127.368C381.513 127.292 381.453 127.202 381.412 127.104C381.371 127.005 381.35 126.899 381.35 126.792V113.715C381.35 113.499 381.435 113.292 381.588 113.139C381.741 112.987 381.948 112.901 382.164 112.901C382.38 112.901 382.587 112.987 382.74 113.139C382.893 113.292 382.979 113.499 382.979 113.715V126.792C382.979 126.899 382.958 127.005 382.917 127.104C382.876 127.202 382.816 127.292 382.74 127.368C382.665 127.443 382.575 127.503 382.476 127.544C382.377 127.585 382.271 127.606 382.164 127.606H382.164Z" fill="#E78A00"/>
<path d="M399.372 127.606C399.265 127.606 399.159 127.585 399.06 127.544C398.962 127.504 398.872 127.444 398.796 127.368C398.721 127.292 398.661 127.202 398.62 127.104C398.579 127.005 398.558 126.899 398.558 126.792V114.802C398.558 114.586 398.644 114.379 398.797 114.227C398.95 114.074 399.156 113.989 399.372 113.989C399.588 113.989 399.795 114.074 399.948 114.227C400.1 114.379 400.186 114.586 400.187 114.802V126.792C400.187 126.899 400.166 127.005 400.125 127.104C400.084 127.202 400.024 127.292 399.948 127.368C399.873 127.444 399.783 127.504 399.684 127.544C399.585 127.585 399.479 127.606 399.372 127.606H399.372Z" fill="#E78A00"/>
</g>
<defs>
<clipPath id="clip0_140_332">
<rect width="445" height="274" fill="white" transform="translate(0.5)"/>
</clipPath>
</defs>
</svg>
